# xmcd CD database file
#
# Track frame offsets:
#	150
#	22542
#	43750
#
# Disc length: 975 seconds
#
# Revision: 1
# Processed by: cddbd v1.5.2PL0 Copyright (c) Steve Scherf et al.
# Submitted via: CDex 1.51
#
DISCID=1503cd03
DTITLE=NKOTB - Maxii
DYEAR=1991
DGENRE=Pop
TTITLE0=Baby, I Believe in you
TTITLE1=Baby, IBelieve in you
TTITLE2=Call It what you want ( The C&C Pump-It mix)
EXTD=YEAR: 1991
EXTT0=
EXTT1=
EXTT2=
PLAYORDER=
